<?xml version="1.0" encoding="utf-8"?>
<!-- Generator: Adobe Illustrator 16.0.0, SVG Export Plug-In . SVG Version: 6.00 Build 0)  -->
<!DOCTYPE svg PUBLIC "-//W3C//DTD SVG 1.1//EN" "http://www.w3.org/Graphics/SVG/1.1/DTD/svg11.dtd">
<svg version="1.1" id="Layer_1" xmlns="http://www.w3.org/2000/svg" xmlns:xlink="http://www.w3.org/1999/xlink" x="0px" y="0px"
	 width="200px" height="200px" viewBox="0 0 200 200" enable-background="new 0 0 200 200" xml:space="preserve">
<g>
	<circle fill="#FFCC57" cx="99.221" cy="99.221" r="76.053"/>
	<g>
		<path fill="#4C3D1A" d="M116.129,80.866l-28.408,28.611l-8.877-8.942l-17.755,17.88v10.729h78.123v-25.033L116.129,80.866
			 M71.741,71.926c-5.881,0-10.653,4.805-10.653,10.728c0,5.923,4.772,10.728,10.653,10.728c5.881,0,10.653-4.805,10.653-10.728
			C82.394,76.731,77.622,71.926,71.741,71.926 M55.761,136.295c-0.942,0-1.775-0.84-1.775-1.791V66.563
			c0-0.95,0.833-1.789,1.775-1.789h88.776c0.943,0,1.776,0.839,1.776,1.789v67.941c0,0.951-0.833,1.791-1.776,1.791H55.761
			 M144.537,57.622H55.761c-4.882,0-8.877,4.023-8.877,8.94v67.941c0,4.919,3.995,8.942,8.877,8.942h88.776
			c4.883,0,8.877-4.023,8.877-8.942V66.563C153.414,61.645,149.42,57.622,144.537,57.622"/>
		<path fill="#4C3D1A" d="M99.31,170.126c-38.403,0-69.636-31.456-69.636-70.126c0-38.67,31.233-70.125,69.636-70.125
			c38.402,0,69.635,31.454,69.635,70.125C168.944,138.67,137.712,170.126,99.31,170.126 M99.31,1C45.035,1,1,45.345,1,100
			s44.035,99,98.31,99c54.273,0,98.309-44.345,98.309-99S153.583,1,99.31,1"/>
		<path fill="#FFCC57" d="M199,98.195c0-0.658-0.269-1.276-0.731-1.739l-17.2-17.319c-0.455-0.464-1.07-0.735-1.725-0.735
			c-1.344,0-2.457,1.121-2.457,2.474v34.64c0,1.354,1.113,2.474,2.457,2.474c0.654,0,1.27-0.271,1.725-0.737l17.2-17.317
			C198.731,99.472,199,98.854,199,98.195z"/>
	</g>
</g>
</svg>
