<?xml version="1.0" encoding="utf-8"?>
<!-- Generator: Adobe Illustrator 16.0.0, SVG Export Plug-In . SVG Version: 6.00 Build 0)  -->
<!DOCTYPE svg PUBLIC "-//W3C//DTD SVG 1.1//EN" "http://www.w3.org/Graphics/SVG/1.1/DTD/svg11.dtd">
<svg version="1.1" id="Layer_1" xmlns="http://www.w3.org/2000/svg" xmlns:xlink="http://www.w3.org/1999/xlink" x="0px" y="0px"
	 width="100px" height="100px" viewBox="0 0 100 100" enable-background="new 0 0 100 100" xml:space="preserve">
<g>
	<path fill-rule="evenodd" clip-rule="evenodd" fill="#009EB6" d="M32.782,78.096c-0.782-0.326-1.564-0.651-2.347-0.978
		c-0.162-0.061-0.335-0.092-0.484-0.186c-0.505-0.188-1.011-0.376-1.516-0.563c-0.179-0.1-0.382-0.123-0.574-0.18
		c-0.875-0.208-1.73-0.506-2.632-0.593c-0.316-0.089-0.653-0.044-0.965-0.159c-0.916-0.083-1.832-0.173-2.75-0.013
		c-0.442,0.186-0.917,0.055-1.37,0.139c-0.15,0.028-0.31-0.026-0.458,0.039c-1.373,0.029-2.726,0.259-4.079,0.459
		c-1.228,0.181-2.46,0.36-3.663,0.685c-0.251,0.085-0.525,0.077-0.772,0.182c-1.293,0.212-2.529,0.629-3.758,1.062
		c-0.709,0.25-1.395,0.569-2.091,0.857c-0.202,0.081-0.379,0.124-0.306-0.205c0.228-0.757,0.455-1.514,0.682-2.27
		c0.081-0.188,0.096-0.395,0.175-0.582c0.008-0.085,0.016-0.17,0.024-0.255c0.036-0.17,0.109-0.328,0.161-0.493
		c0.513-1.768,1.026-3.536,1.539-5.304c0.076-0.187,0.089-0.391,0.174-0.573c0.13-0.502,0.261-1.003,0.391-1.504
		c0.081-0.186,0.092-0.394,0.176-0.578c0.195-0.691,0.389-1.383,0.583-2.075c0.077-0.186,0.091-0.392,0.174-0.576
		c0.383-1.325,0.767-2.65,1.15-3.976c0.046-0.195,0.101-0.388,0.167-0.577c0.513-1.768,1.026-3.535,1.54-5.302
		c0.083-0.187,0.095-0.394,0.176-0.58c0.35-1.242,0.766-2.471,1.025-3.73c0.191-0.925,0.681-1.405,1.545-1.642
		c0.422-0.116,0.818-0.326,1.226-0.493c0.153-0.078,0.323-0.115,0.48-0.183c1.472-0.505,2.943-1.015,4.447-1.421
		c1.674-0.451,3.36-0.834,5.081-1.067c1.882-0.255,3.764-0.355,5.662-0.199c2.275,0.188,4.481,0.682,6.64,1.403
		c2.168,0.724,4.233,1.679,6.222,2.803c0.096,0.054,0.185,0.119,0.277,0.179c0.078,0.096,0.194,0.129,0.299,0.18
		c0.433,0.26,0.866,0.52,1.3,0.779c0.098,0.059,0.222,0.08,0.287,0.189c0.373,0.211,0.422,0.475,0.257,0.883
		c-0.202,0.499-0.301,1.04-0.444,1.563c-0.082,0.186-0.094,0.393-0.176,0.578l-0.018-0.005c-0.077,0.188-0.092,0.395-0.176,0.579
		c-0.383,1.324-0.766,2.648-1.148,3.972c-0.068,0.158-0.087,0.334-0.164,0.489c-0.289,1.039-0.574,2.078-0.867,3.116
		c-0.089,0.316-0.195,0.627-0.294,0.94c-0.084,0.188-0.099,0.396-0.175,0.586c-0.384,1.321-0.768,2.643-1.15,3.964
		c-0.087,0.187-0.102,0.395-0.175,0.586c-0.384,1.32-0.767,2.641-1.149,3.962c-0.09,0.188-0.105,0.397-0.177,0.591
		c-0.345,1.224-0.684,2.449-1.034,3.672c-0.416,1.449-0.854,2.893-1.254,4.346c-0.113,0.411-0.238,0.452-0.595,0.231
		c-1.548-0.958-3.142-1.834-4.798-2.592C32.985,78.199,32.874,78.165,32.782,78.096z"/>
	<path fill-rule="evenodd" clip-rule="evenodd" fill="#6AA312" d="M68.718,55.039c-5.261-0.032-10.002-1.925-14.279-5.125
		c-0.303-0.227-0.573-0.501-0.893-0.701c-0.521-0.328-0.549-0.736-0.386-1.285c1.73-5.825,3.446-11.654,5.16-17.483
		c1.036-3.528,2.064-7.06,3.096-10.59c0.186-0.637,0.245-0.665,0.776-0.285c3.331,2.38,6.982,4.027,10.983,4.932
		c3.421,0.774,6.826,0.71,10.247,0.057c2.314-0.441,4.585-1.044,6.831-1.748c1.442-0.452,2.862-0.964,4.271-1.51
		c0.139-0.053,0.298-0.206,0.432-0.074c0.104,0.103-0.007,0.269-0.045,0.4c-1.268,4.399-2.539,8.796-3.808,13.195
		c-1.492,5.171-2.985,10.343-4.466,15.517c-0.1,0.349-0.257,0.55-0.6,0.708c-3.27,1.512-6.667,2.619-10.214,3.252
		C73.521,54.708,71.202,54.975,68.718,55.039z"/>
	<path fill-rule="evenodd" clip-rule="evenodd" fill="#D5A01F" d="M57.458,89.669c-4.058-0.364-7.774-1.721-11.216-3.866
		c-1.027-0.64-2.035-1.313-3.066-1.943c-0.289-0.177-0.17-0.374-0.115-0.568c0.324-1.153,0.662-2.304,0.996-3.456
		c1.359-4.698,2.721-9.396,4.078-14.095c1.085-3.759,2.172-7.518,3.242-11.281c0.124-0.434,0.294-0.372,0.59-0.188
		c2.2,1.371,4.484,2.582,6.869,3.599c2.42,1.032,4.892,1.968,7.556,1.974c3.829,0.008,7.628-0.354,11.344-1.373
		c2.316-0.635,4.581-1.414,6.818-2.283c0.099-0.039,0.212-0.14,0.306-0.063c0.122,0.1,0.017,0.234-0.018,0.349
		c-2.109,7.01-4.09,14.058-6.133,21.088c-0.647,2.227-1.274,4.459-1.909,6.689c-0.025,0.09-0.029,0.187-0.043,0.279
		c0.018,0.072,0.002,0.134-0.063,0.178c-0.083,0.974-0.816,1.243-1.585,1.55c-3.608,1.444-7.307,2.559-11.157,3.135
		c-0.763,0.113-1.531,0.184-2.298,0.273c-0.125,0.021-0.251,0.038-0.375,0.063c-0.155,0.005-0.311,0.006-0.466-0.002
		c-0.863-0.174-1.726-0.243-2.583,0.034c-0.133,0.024-0.267,0.016-0.4,0.018C57.695,89.778,57.56,89.781,57.458,89.669z"/>
	<path fill-rule="evenodd" clip-rule="evenodd" fill="#DB3E00" d="M17.82,34.109c0.127-0.379,0.253-0.758,0.38-1.137
		c0.093-0.183,0.1-0.392,0.179-0.579c0.13-0.502,0.26-1.004,0.39-1.506c0.12-0.173,0.038-0.407,0.176-0.574l0.017,0.008
		c0.131-0.125,0.076-0.291,0.093-0.44c0.024-0.108,0.027-0.222,0.087-0.321c0.193-0.632,0.387-1.263,0.58-1.895
		c0.085-0.184,0.091-0.393,0.179-0.576c0.074-0.456,0.226-0.889,0.383-1.32c0.081-0.139,0.092-0.292,0.095-0.447
		c-0.001-0.113-0.003-0.227,0.087-0.314l0.015,0.007c0.144-0.167,0.065-0.404,0.179-0.581c0.283-1.08,0.574-2.157,0.947-3.21
		c0.102-0.188,0.118-0.402,0.179-0.603c-0.032-0.328,0.166-0.601,0.218-0.909c0.118-0.143,0.091-0.333,0.163-0.491
		c0.387-1.354,0.774-2.709,1.161-4.064c0.056-0.13,0.066-0.277,0.152-0.395c0.008-0.267,0.075-0.516,0.23-0.737
		c0.106-0.093,0.278-0.063,0.364-0.194c0.695-0.317,1.39-0.633,2.085-0.95c0.101-0.13,0.286-0.067,0.398-0.172
		c1.194-0.387,2.388-0.774,3.582-1.161c0.075-0.053,0.169-0.042,0.25-0.076c0.173-0.017,0.349-0.02,0.51-0.1
		c3.499-0.935,7.06-1.277,10.673-1.114c0.55,0.025,1.098,0.111,1.646,0.169c0.31,0.138,0.659,0.04,0.971,0.164
		c1.152,0.068,2.256,0.386,3.364,0.671c0.575,0.148,1.143,0.33,1.714,0.497c0.112,0.102,0.269,0.103,0.396,0.171
		c2.51,0.934,4.836,2.206,6.999,3.787c0.331,0.242,0.475,0.461,0.29,0.86c-0.125,0.269-0.188,0.565-0.28,0.849
		c-0.134,0.127-0.079,0.293-0.092,0.446c0.001,0.115,0.003,0.23-0.089,0.318c-0.383,1.262-0.765,2.525-1.146,3.788
		c-0.073,0.139-0.088,0.29-0.094,0.443c-0.025,0.106-0.027,0.219-0.087,0.316c-0.014,0.025-0.018,0.052-0.013,0.08
		c-0.133,0.206-0.003,0.487-0.192,0.677c-0.107,0.173-0.169,0.362-0.192,0.564c-0.12,0.143-0.091,0.334-0.165,0.492
		c0,0.028-0.006,0.055-0.017,0.08c-0.088,0.184-0.093,0.394-0.181,0.577c-0.129,0.501-0.259,1.001-0.389,1.502
		c-0.109,0.178-0.033,0.412-0.177,0.58l-0.016-0.008c-0.142,0.166-0.061,0.401-0.179,0.575l0.001,0.001
		c-0.101,0.18-0.108,0.388-0.179,0.577c-0.195,0.691-0.392,1.381-0.588,2.071c-0.087,0.183-0.091,0.391-0.18,0.573l-0.004-0.001
		c-0.08,0.137-0.09,0.289-0.098,0.441c-0.025,0.106-0.029,0.219-0.086,0.317c-0.383,1.325-0.765,2.649-1.148,3.973
		c-0.085,0.184-0.095,0.391-0.176,0.576c-0.382,1.262-0.763,2.524-1.145,3.787c-0.094,0.161-0.096,0.339-0.097,0.517
		c0.002,0.093-0.018,0.179-0.084,0.249c-0.382,1.262-0.763,2.523-1.144,3.785c-0.103,0.178-0.105,0.388-0.18,0.574
		c-0.007,0.061-0.014,0.121-0.021,0.181c-0.121,0.223-0.256,0.086-0.389,0.015c-1.977-1.217-3.986-2.373-6.106-3.327
		c-0.099-0.045-0.205-0.073-0.308-0.108c-0.107-0.111-0.271-0.099-0.391-0.181c-0.797-0.377-1.617-0.696-2.462-0.948
		c-0.181-0.094-0.394-0.087-0.571-0.186c-0.379-0.127-0.756-0.255-1.135-0.382c-0.176-0.144-0.41-0.088-0.604-0.172
		c-0.113-0.008-0.229-0.017-0.343-0.026c-0.192-0.066-0.392-0.107-0.588-0.159c-1.372-0.244-2.757-0.316-4.143-0.191
		c-1.41,0.127-2.807,0.364-4.19,0.671c-1.256,0.279-2.512,0.56-3.768,0.84c-0.19,0.071-0.398,0.085-0.583,0.175
		c-0.692,0.194-1.385,0.388-2.078,0.583c-0.14,0.126-0.345,0.059-0.493,0.163c-0.863,0.212-1.706,0.487-2.545,0.776
		c-0.156,0.078-0.335,0.089-0.491,0.17c-0.655,0.204-1.311,0.407-1.966,0.611c-0.217,0.059-0.283-0.024-0.217-0.231
		c0-0.267,0.127-0.499,0.21-0.742c0.093-0.158,0.086-0.336,0.106-0.509c0.033-0.082,0.022-0.176,0.077-0.251
		c0.137-0.501,0.273-1.001,0.41-1.502c0.089-0.118,0.102-0.265,0.151-0.397l0.015,0.006c0.089-0.158,0.085-0.336,0.104-0.509
		c0.034-0.081,0.021-0.176,0.079-0.249c0.446-1.516,0.892-3.032,1.338-4.547c0.065-0.142,0.086-0.292,0.09-0.447
		C17.756,34.317,17.75,34.202,17.82,34.109z"/>
</g>
</svg>
