<?xml version="1.0" encoding="utf-8"?>
<!-- Generator: Adobe Illustrator 16.0.0, SVG Export Plug-In . SVG Version: 6.00 Build 0)  -->
<!DOCTYPE svg PUBLIC "-//W3C//DTD SVG 1.1//EN" "http://www.w3.org/Graphics/SVG/1.1/DTD/svg11.dtd">
<svg version="1.1" id="Layer_1" xmlns="http://www.w3.org/2000/svg" xmlns:xlink="http://www.w3.org/1999/xlink" x="0px" y="0px"
	 width="312px" height="107px" viewBox="0 0 312 107" enable-background="new 0 0 312 107" xml:space="preserve">
<g>
	<polyline fill="#F6BB43" points="315,110 -3,110 -3,-3 315,-3 315,110 	"/>
	<path fill="#FFCC57" d="M311,5c0-2.209-1.791-4-4-4H6C3.791,1,2,2.791,2,5v96c0,2.209,1.791,4,4,4h301c2.209,0,4-1.791,4-4V5"/>
	<path fill="#4C3D1A" d="M127.272,46.84h-19.488v5.232h9.984l-10.272,14.064v1.392h19.056v-5.279h-9.648l10.368-14.16V46.84
		 M221.975,46.84h-6.239v26.352c0,2.336-0.785,3.505-2.352,3.505h-1.633v5.856h2.208c2.304,0,4.216-0.882,5.736-2.642
		c1.52-1.76,2.279-4,2.279-6.72V46.84 M101.112,46.312c-3.201,0-5.537,0.96-7.008,2.88L93.24,46.84h-4.656v20.688h6V56.104
		c0.319-1.695,1.248-2.952,2.784-3.768c0.808-0.429,1.642-0.644,2.502-0.644c0.776,0,1.574,0.174,2.394,0.523l2.352-5.328
		C103.528,46.504,102.36,46.312,101.112,46.312 M184.871,46.312c-3.2,0-5.536,0.96-7.008,2.88l-0.864-2.352h-4.656v20.688h6.001
		V56.104c0.318-1.695,1.247-2.952,2.783-3.768c0.809-0.429,1.643-0.644,2.503-0.644c0.776,0,1.574,0.174,2.394,0.523l2.352-5.328
		C187.287,46.504,186.119,46.312,184.871,46.312 M73.801,62.824c-1.504,0-2.752-0.544-3.744-1.632
		c-1.088-1.088-1.632-2.432-1.632-4.032c0-1.6,0.543-2.929,1.632-3.984c0.96-1.12,2.208-1.68,3.744-1.68
		c1.503,0,2.784,0.561,3.84,1.68c1.024,1.088,1.536,2.4,1.536,3.937c0,1.6-0.512,2.96-1.536,4.08
		C76.552,62.28,75.272,62.824,73.801,62.824 M73.752,46.216c-3.168,0-5.864,1.064-8.088,3.192c-2.225,2.128-3.336,4.712-3.336,7.752
		s1.111,5.624,3.336,7.752c2.224,2.129,4.92,3.192,8.088,3.192c3.2,0,5.912-1.063,8.136-3.192c2.224-2.128,3.336-4.712,3.336-7.752
		s-1.112-5.624-3.336-7.752C79.664,47.28,76.952,46.216,73.752,46.216 M201.048,62.824c-1.505,0-2.753-0.544-3.744-1.632
		c-1.088-1.088-1.632-2.432-1.632-4.032c0-1.6,0.544-2.929,1.632-3.984c0.96-1.12,2.208-1.68,3.744-1.68
		c1.504,0,2.783,0.561,3.84,1.68c1.024,1.088,1.536,2.4,1.536,3.937c0,1.6-0.512,2.96-1.536,4.08
		C203.8,62.28,202.519,62.824,201.048,62.824 M201,46.216c-3.168,0-5.865,1.064-8.088,3.192c-2.225,2.128-3.336,4.712-3.336,7.752
		s1.111,5.624,3.336,7.752c2.223,2.129,4.92,3.192,8.088,3.192c3.199,0,5.911-1.063,8.136-3.192
		c2.224-2.128,3.336-4.712,3.336-7.752s-1.112-5.624-3.336-7.752C206.911,47.28,204.199,46.216,201,46.216 M262.391,46.168
		c-3.168,0-5.872,1.072-8.111,3.216c-2.24,2.145-3.36,4.721-3.36,7.729c0,3.04,1.12,5.632,3.36,7.775
		c2.239,2.145,4.943,3.217,8.111,3.217c2.464,0,4.736-0.704,6.816-2.113l-2.688-4.799c-0.863,0.863-1.88,1.368-3.048,1.511
		c-0.292,0.036-0.579,0.055-0.859,0.055c-0.843,0-1.637-0.162-2.38-0.485c-0.992-0.433-1.833-1.104-2.521-2.017
		c-0.688-0.912-1.032-1.928-1.032-3.048c0-1.248,0.368-2.336,1.104-3.264c0.735-0.928,1.615-1.576,2.64-1.944
		c0.673-0.242,1.37-0.363,2.092-0.363c0.376,0,0.759,0.033,1.148,0.099c1.136,0.192,2.088,0.704,2.855,1.536l2.784-4.896
		C267.223,46.904,264.919,46.168,262.391,46.168 M231.575,55.432c0.319-0.928,0.751-1.711,1.296-2.352
		c1.024-1.087,2.256-1.632,3.696-1.632s2.656,0.544,3.648,1.632c0.607,0.672,1.039,1.457,1.295,2.352H231.575 M236.327,46.12
		c-3.04,0-5.632,1.073-7.775,3.216c-2.145,2.144-3.217,4.736-3.217,7.776s1.08,5.632,3.24,7.775c2.16,2.145,4.743,3.217,7.752,3.217
		c3.392,0,6.159-1.28,8.304-3.841l-4.512-3.023c-1.024,1.024-2.208,1.536-3.552,1.536c-1.44,0-2.672-0.56-3.696-1.681
		c-0.512-0.544-0.911-1.216-1.199-2.017h15.456c0.127-0.606,0.191-1.263,0.191-1.967c0-3.04-1.073-5.632-3.216-7.776
		C241.959,47.192,239.367,46.12,236.327,46.12 M283.463,39.16h-6.097v7.68h-4.319v5.616h4.319v15.071h6.097V52.456h4.8V46.84h-4.8
		V39.16 M221.927,33.976h-6.239v6.72h6.239V33.976 M57.769,33.88h-2.352L41.401,46.648L27.337,33.88h-2.304v33.647h6.72V46.936
		l9.648,8.784l9.648-8.784v20.591h6.72V33.88 M154.008,47.368V40.6h4.176c0.928,0,1.72,0.336,2.376,1.008
		c0.655,0.672,0.983,1.472,0.983,2.4c0,0.929-0.328,1.721-0.983,2.376c-0.656,0.656-1.448,0.984-2.376,0.984H154.008 M158.184,33.88
		h-10.896v33.647h6.72V54.088h4.176c2.784,0,5.16-0.984,7.128-2.952c1.968-1.968,2.952-4.344,2.952-7.128s-0.984-5.167-2.952-7.152
		C163.344,34.872,160.968,33.88,158.184,33.88"/>
</g>
</svg>
